<?xml version="1.0" encoding="UTF-8"?>
<svg id="Capa_2" data-name="Capa 2" xmlns="http://www.w3.org/2000/svg" xmlns:xlink="http://www.w3.org/1999/xlink" viewBox="0 0 189.42 195.9">
  <defs>
    <style>
      .cls-1 {
        fill: url(#Degradado_sin_nombre_2);
      }

      .cls-2 {
        fill: url(#Degradado_sin_nombre_2-2);
      }
    </style>
    <linearGradient id="Degradado_sin_nombre_2" data-name="Degradado sin nombre 2" x1="106.19" y1="166.83" x2="31.53" y2="43" gradientUnits="userSpaceOnUse">
      <stop offset="0" stop-color="#17cbda"/>
      <stop offset=".77" stop-color="#245ef5"/>
    </linearGradient>
    <linearGradient id="Degradado_sin_nombre_2-2" data-name="Degradado sin nombre 2" x1="91.91" y1="175.86" x2="148.74" y2="43.92" xlink:href="#Degradado_sin_nombre_2"/>
  </defs>
  <g id="svg8">
    <g>
      <path class="cls-1" d="M0,44.1L64.89,0l22.5,15.61v19.86l-58.32,38.73v43.74s11.36,7.9,13.09,8.09,92.62-59.57,92.62-59.57l9.81,7.74v48.1l-57.2,39.71v24.03s-11.36,8.44-14.52,8.44-34.61-22.72-34.61-22.72l87.64-57.13-.07-18.21-96.76,63.55s-2.33,2.44-5.11,2.3S0,147.02,0,147.02V44.1Z"/>
      <path class="cls-2" d="M45.76,104.11v-22.61l58.7-38.67V15.3s-1.44-2.11,2.53-4.71S120.81.98,122.6.98s66.81,43.11,66.81,43.11v106.9l-65.64,42.9s-2.7,1.98-4.41,2.01-15.43-7.29-15.95-11.16-.64-14.21,1.66-16.08,55.37-36.37,55.37-36.37v-68.22l-25.04-17-89.64,57.04Z"/>
    </g>
  </g>
</svg>